<?xml version="1.0" ?><svg enable-background="new 0 0 515.91 728.5" height="512" id="Layer_1" version="1.1" viewBox="0 0 512.00003 512" width="512" xml:space="preserve" xmlns="http://www.w3.org/2000/svg" xmlns:cc="http://creativecommons.org/ns#" xmlns:dc="http://purl.org/dc/elements/1.1/" xmlns:inkscape="http://www.inkscape.org/namespaces/inkscape" xmlns:rdf="http://www.w3.org/1999/02/22-rdf-syntax-ns#" xmlns:sodipodi="http://sodipodi.sourceforge.net/DTD/sodipodi-0.dtd" xmlns:svg="http://www.w3.org/2000/svg"><defs id="defs7"/><g id="g3139"><rect height="512" id="rect2984" rx="64" ry="64" style="fill:#f94877;fill-opacity:1;fill-rule:nonzero;stroke:none" width="512" x="0" y="0"/><path d="m 133.14004,56.000022 c -6.31017,-0.01037 -12.41603,2.513925 -16.8859,6.968238 -4.46976,4.454415 -6.98908,10.543364 -7.0007,16.853538 l -0.58339,352.303842 c -0.0301,9.83707 6.1712,18.82576 15.36265,22.33088 9.19155,3.50481 19.82193,0.90926 26.3498,-6.44977 l 104.4272,-117.65055 74.47957,0 c 5.4228,0.0104 10.7091,-1.86021 14.94136,-5.25063 4.23206,-3.39031 7.1849,-8.12464 8.36195,-13.4179 L 402.76426,85.85028 c 1.56027,-7.021855 -0.1452,-14.442392 -4.63477,-20.062242 -4.48948,-5.620058 -11.3457,-8.948451 -18.53889,-8.977698 L 133.1725,56.000022 z m 27.80843,42.749599 c 0.0104,0 0.0218,0 0.0322,0 l 183.2498,0.58349 c 2.47275,0.0104 4.91635,1.189079 6.45879,3.121789 1.54244,1.93272 2.15217,4.57742 1.61151,6.99033 l -11.42452,51.225 c -0.81768,3.64597 -4.36616,6.48472 -8.10266,6.48213 l -85.19956,0 -0.0643,0 -0.0975,0 c -3.79707,-0.0436 -9.21271,-0.11979 -10.84942,4.95889 -1.52947,4.74585 -6.30395,24.23269 -6.30395,28.06762 0,3.83483 1.5609,7.55961 4.27821,10.24176 2.70693,2.67178 6.42446,4.18383 10.2094,4.14857 0.0104,-2.1e-4 0.0218,1e-4 0.0322,0 0.0643,-6.3e-4 0.17818,0 0.0643,0 0.0322,-2.1e-4 0.0643,-2.1e-4 0.0975,0 l 73.70192,0 c 2.47814,0 4.9314,1.17539 6.48099,3.10924 1.54949,1.93385 2.16337,4.58468 1.62157,7.00288 l -12.10541,54.27149 c -0.80492,3.65769 -4.35733,6.51387 -8.10255,6.5146 l -62.77949,0 c -4.05542,-0.0104 -8.00527,1.7676 -10.72787,4.82923 -0.1454,0.15703 -0.29683,0.30835 -0.45385,0.45365 l -80.10574,91.65503 c 0.0539,-0.15671 0,-275.35858 0,-275.35858 4.2e-4,-4.34427 4.13405,-8.29671 8.47832,-8.29712 z" id="path4808" style="font-size:medium;font-style:normal;font-variant:normal;font-weight:normal;font-stretch:normal;text-indent:0;text-align:start;text-decoration:none;line-height:normal;letter-spacing:normal;word-spacing:normal;text-transform:none;direction:ltr;block-progression:tb;writing-mode:lr-tb;text-anchor:start;baseline-shift:baseline;color:#000000;fill:#ffffff;fill-opacity:1;fill-rule:nonzero;stroke:none;stroke-width:10;marker:none;visibility:visible;display:inline;overflow:visible;enable-background:accumulate;font-family:Sans;-inkscape-font-specification:Sans"/></g></svg>