<?xml version="1.0" encoding="utf-8"?>
<!-- Generator: Adobe Illustrator 21.0.2, SVG Export Plug-In . SVG Version: 6.00 Build 0)  -->
<svg version="1.1" id="Layer_1" xmlns="http://www.w3.org/2000/svg" xmlns:xlink="http://www.w3.org/1999/xlink" x="0px" y="0px"
	 viewBox="0 0 54.1 41.8" style="enable-background:new 0 0 54.1 41.8;" xml:space="preserve">
<g>
	<path fill="#333333" d="M50.9,23c-2.2-2.2-4.8-3.2-7.8-3.2s-5.6,1.1-7.8,3.2s-3.2,4.8-3.2,7.8s1.1,5.6,3.2,7.8s4.8,3.2,7.8,3.2s5.6-1.1,7.8-3.2
		s3.2-4.8,3.2-7.8C54.2,27.8,53.1,25.2,50.9,23z M50.2,32.4c0,0.3-0.2,0.5-0.5,0.5h-4.6v4.5c0,0.3-0.2,0.5-0.5,0.5h-3.1
		c-0.3,0-0.5-0.2-0.5-0.5v-4.6h-4.6c-0.3,0-0.5-0.2-0.5-0.5v-3.1c0-0.3,0.2-0.5,0.5-0.5H41v-4.6c0-0.3,0.2-0.5,0.5-0.5h3.1
		c0.3,0,0.5,0.2,0.5,0.5v4.6h4.6c0.3,0,0.5,0.2,0.5,0.5V32.4z"/>
</g>
<g>
	<path fill="#333333" d="M29.8,30.8c0-0.4,0.1-1.8-0.5-2.3c-0.6-0.4-0.9-0.7-1.3-1c-1.1-1.1-1.6-2.5-1.6-4.3c0-0.7,0.3-1.4,1.1-2.2
		c0.7-0.8,1.2-1.9,1.4-3.4c0.1-0.4,0.2-0.6,0.4-0.8c0.2-0.2,0.4-0.3,0.6-0.4c0.2-0.1,0.4-0.3,0.6-0.8c0.2-0.5,0.3-1.1,0.4-2
		c0-1-0.3-1.7-0.8-1.9l0.5-4c0.2-1.6-0.4-3.3-1.8-5.1C27.4,0.8,25,0,21.6,0c-3.4,0-5.8,0.9-7.2,2.6c-1.4,1.8-2,3.5-1.9,5.1
		c0.1,1.2,0.3,2.5,0.5,4l-0.2,0.2c-0.1,0.1-0.3,0.2-0.4,0.5c-0.2,0.3-0.2,0.7-0.2,1.2c0.1,0.9,0.2,1.5,0.4,2
		c0.2,0.5,0.4,0.7,0.6,0.8c0.2,0.1,0.4,0.2,0.6,0.4c0.2,0.2,0.3,0.5,0.4,0.8c0.3,1.4,0.8,2.5,1.5,3.3c0.7,0.8,1,1.6,1,2.2
		c0,1.8-0.5,3.3-1.6,4.3c-1,1.1-3,2.1-5.8,3.2c-6.2,2.2-9.3,4-9.3,5.6V41h21.6h13.1C31.7,38.6,29.8,34.9,29.8,30.8z"/>
</g>
</svg>
