<?xml version="1.0" encoding="utf-8"?>
<!-- Generator: Adobe Illustrator 21.0.2, SVG Export Plug-In . SVG Version: 6.00 Build 0)  -->
<svg version="1.1" id="Layer_1" xmlns="http://www.w3.org/2000/svg" xmlns:xlink="http://www.w3.org/1999/xlink" x="0px" y="0px"
	 viewBox="0 0 34.8 34.4" style="enable-background:new 0 0 34.8 34.4;" xml:space="preserve">
<path fill="#333333" d="M11.5,17c0,0.1,0,0.2,0,0.3l14.1,6.8c1-0.8,2.2-1.1,3.4-1.1c1.6,0,2.9,0.6,4,1.7c1.1,1.1,1.7,2.5,1.7,4s-0.6,2.9-1.7,4
	c-1.1,1.1-2.4,1.7-4,1.7s-2.9-0.6-4-1.7c-1.1-1.1-1.7-2.5-1.7-4.1l-14.5-7c-0.9,0.6-2,0.9-3.1,0.9c-1.6,0-2.9-0.6-4-1.7
	S0,18.4,0,16.8c0-1.6,0.6-2.9,1.7-4s2.4-1.7,4-1.7c1.3,0,2.5,0.4,3.5,1.2l14.2-6.6c0-1.6,0.6-2.9,1.7-4s2.4-1.7,4-1.7s2.9,0.6,4,1.7
	s1.7,2.4,1.7,4s-0.6,2.9-1.7,4c-1.1,1.1-2.4,1.7-4,1.7c-1.3,0-2.4-0.4-3.4-1.1L11.5,17z"/>
</svg>
