<?xml version="1.0" encoding="UTF-8" standalone="no"?>
<svg id="svg2" xmlns:rdf="http://www.w3.org/1999/02/22-rdf-syntax-ns#" xmlns="http://www.w3.org/2000/svg" xml:space="preserve" height="512" width="512" version="1.1" xmlns:cc="http://creativecommons.org/ns#" xmlns:dc="http://purl.org/dc/elements/1.1/" viewBox="0 0 512 512"><metadata id="metadata25"><rdf:RDF><cc:Work rdf:about=""><dc:format>image/svg+xml</dc:format><dc:type rdf:resource="http://purl.org/dc/dcmitype/StillImage"/><dc:title/></cc:Work></rdf:RDF></metadata><style id="style4" type="text/css">
	.st0{fill:#661226;}
	.st1{fill:#ED1C40;}
	.st2{fill:#A51B38;}
	.st3{fill:#FFFFFF;}
</style><g id="Background" transform="matrix(1.081 0 0 1.081 -20.33 -7.243)"><path id="path13" fill="#ed1c40" class="st1" d="m492.3 418.4c0 34.2-27.7 61.9-61.9 61.9h-349.7c-34.2 0-61.9-27.7-61.9-61.9v-349.8c0-34.2 27.7-61.9 61.9-61.9h349.7c34.2 0 61.9 27.7 61.9 61.9v349.8z"/></g><g id="Symbol" transform="matrix(1.389 0 0 1.412 -108.1 -95.84)"><path id="path19" fill="#fff" class="st3" d="m388.3 294.6c0 30-21.6 55.8-50.9 60.9-3.7.6-7.4 1-11.2 1-1.3 0-1.8.5-2.2 1.7-5.9 16.8-17.6 26.9-35.2 29.4-11.7 1.7-22.3-1.5-31.6-8.8-1.3-1-2.1-1-3.4-.1-10.9 7.8-23.1 11.2-36.4 10.4-26-1.6-47.8-21.4-51.9-47-.3-1.8-.6-3.6-.6-5.3 0-1.5-.6-2.1-2-2.3-7.9-1.5-15-4.8-21.3-9.7-11.6-9.1-18.5-20.9-20.2-35.6-1.8-16.8 3.3-31.3 15.1-43.4 1-1 1-1.6.4-2.8-4.5-7.9-6.7-16.5-6.3-25.6.9-22.7 16.7-41.4 38.6-46.1 2.5-.5 3.9-1.5 5-3.9 10.8-23.3 29-37.5 54.3-42.2 17.7-3.3 34.4.2 50 9.4 1.3.8 2.4.8 3.8.4 24.6-7.1 46.5-1.9 65 15.7 11 10.4 17 23.6 18.7 38.7.4 3.3.6 6.6.3 9.9-.1 1.3.3 1.8 1.5 2.2 11.1 4.1 18.8 11.8 22.1 23.1 4.2 14.1.7 26.5-9.9 36.8-.9.9-.7 1.4-.2 2.3 5.7 9.5 8.5 19.8 8.5 30.9zm-109.9-4.8c0 12.8 8.2 24 19.8 27.9 5.8 1.9 11.8 2.8 17.9 3.1 4.3.2 8.7-.1 12.7-2.1 3.2-1.6 4.6-4.2 4.5-7.7s-1.7-6.1-5-7.5c-1.2-.5-2.3-.9-3.6-1.1-3.7-.7-7.4-1.2-11.1-1.9-6.1-1.2-8.6-4.4-8.7-10.5-.1-5.4 1.4-10.5 3.1-15.6 3-9.2 7.2-18.1 11.1-27 3.8-8.6 7.8-17.1 10.5-26.1 1.5-5 2.2-9.9.8-15.1-2-7.8-6.7-13-14.8-14.5-7.4-1.4-14.7-1.5-21.4 2.9-2.2 1.5-4.3 1.1-6.3-.6-1.5-1.3-2.9-2.7-4.3-4-6.8-6.3-15.8-6.6-23.1-.9-2.9 2.3-5.4 5.2-8.6 7.2-2.9 1.8-5.7 2.3-8.9.6-3-1.6-6.1-3-9.3-4.4s-6.2-3.2-9.8-3.5c-11.2-1-23 5.7-27.9 15.9-2.2 4.5-4 9.2-5.7 13.9-7.9 21.7-14.3 43.9-20.9 66-3 9.9.5 19.6 8.9 25 6.5 4.2 13.7 5.2 21.1 3 6-1.8 9.3-6.6 11.6-12.1 7.6-18 14.5-36.3 21.8-54.4 2-5 3.9-10 6.1-14.9 2.1-5 8.3-6.7 12-3.4 2.2 2 2.8 4.7 2.6 7.6-.2 3.1-1.4 5.9-2.5 8.7-4.7 12-9.6 23.9-14.3 35.9-1 2.4-2 4.8-2.4 7.4-.7 4.5 1 8.4 4.7 10s7.6 1.9 11.4.5c4.5-1.6 7.2-5.1 9.2-9.2 7.1-13.9 14.1-27.9 21.2-41.8 3.3-6.4 6.6-12.8 10-19.2 1.2-2.4 2.7-4.6 5-6.1 2.1-1.3 4.4-1.4 6.5-.2s2.2 3.3 2.1 5.4c0 1.1-.4 2.3-.8 3.3-.9 2.2-1.8 4.4-2.8 6.6-5.9 12.4-11.9 24.8-17.7 37.2-2.5 4.9-5 10.2-4.7 15.7zm82.7 91.4c0-8.2-6.9-15.1-15.2-15.1-8.5 0-15.4 6.8-15.4 15.2 0 8.3 7 15.3 15.3 15.3 8.4 0 15.3-6.9 15.3-15.4zm-256.5-126.1c8 0 14.7-6.7 14.7-14.6s-6.6-14.5-14.6-14.6c-8.1 0-14.6 6.4-14.6 14.6.1 8.1 6.5 14.6 14.5 14.6zm179.2-163.1c-8 0-14.6 6.4-14.6 14.4s6.5 14.5 14.5 14.5 14.4-6.4 14.4-14.4-6.4-14.5-14.3-14.5zm118.4 90.2c0-6.6-5.7-12.2-12.3-12.3-6.8 0-12.5 5.7-12.5 12.4s5.5 12.1 12.3 12.2c7 .1 12.6-5.4 12.5-12.3zm-253.7-35.3c0 6.2 4.8 11.1 11 11.1s11.1-4.9 11.1-11.2c0-6.1-4.9-10.9-11-10.9-6.4.1-11.1 4.8-11.1 11zm115.5 256c.1-5.2-4.2-9.4-9.4-9.4-5.4 0-9.6 4.1-9.6 9.4 0 5.2 4.2 9.4 9.5 9.4s9.5-4.1 9.5-9.4zm147.5-146.9c-5 0-9.4 4.3-9.3 9.3 0 5 4.2 9 9.2 9 5.3 0 9.2-3.9 9.2-9.1 0-5-4-9.1-9.1-9.2zm-220.6-173.2c-4.4 0-7.8 3.4-7.8 7.8s3.5 7.8 7.9 7.8c4.3 0 7.7-3.4 7.7-7.8-.1-4.4-3.4-7.7-7.8-7.8zm238.2 131.5c-3.6 0-6.9 3.2-6.9 6.8 0 3.8 3.1 6.9 6.9 6.9s6.8-3 6.8-6.8c0-3.7-3-6.8-6.8-6.9zm-273.4 136.3c0-3.7-3.1-6.8-6.9-6.9-3.8 0-6.9 3.1-6.8 7 0 3.8 3.1 6.8 6.9 6.7 3.7.1 6.8-3 6.8-6.8z"/></g></svg>
