<?xml version="1.0" encoding="UTF-8" standalone="no"?>
<!-- Created with Inkscape (http://www.inkscape.org/) -->

<svg
   xmlns:dc="http://purl.org/dc/elements/1.1/"
   xmlns:cc="http://creativecommons.org/ns#"
   xmlns:rdf="http://www.w3.org/1999/02/22-rdf-syntax-ns#"
   xmlns:svg="http://www.w3.org/2000/svg"
   xmlns="http://www.w3.org/2000/svg"
   version="1.1"
   width="30"
   height="30"
   viewBox="0 0 30 30"
   id="svg2"
   xml:space="preserve"><metadata
   id="metadata38"><rdf:RDF><cc:Work
       rdf:about=""><dc:format>image/svg+xml</dc:format><dc:type
         rdf:resource="http://purl.org/dc/dcmitype/StillImage" /><dc:title></dc:title></cc:Work></rdf:RDF></metadata><defs
   id="defs36" />

<g
   transform="translate(-373.642,-544.344)"
   id="layer1">
	
		<path
   d="m 398.76972,544.53044 h -20.50303 c -2.44973,0 -4.43558,2.00294 -4.43558,4.47375 v 20.67708 c 0,2.47079 1.98585,4.47363 4.43558,4.47363 h 20.50279 c 2.44982,0 4.43559,-2.00295 4.68555,-4.38953 V 549.0884 c -0.24985,-2.55488 -2.23584,-4.55796 -4.68531,-4.55796 z"
   id="rect1942"
   style="fill:#e6e6e6;stroke:#3c3c3c;stroke-width:0.226;stroke-miterlimit:4;stroke-opacity:1;stroke-dasharray:none" />
	
		<linearGradient
   x1="-1313.1793"
   y1="916.68579"
   x2="-1364.8761"
   y2="1067.3752"
   id="path1950_1_"
   gradientUnits="userSpaceOnUse"
   gradientTransform="matrix(-0.07455529,0,0,0.07519589,283.40864,471.00824)">
		<stop
   id="stop7"
   style="stop-color:#ffffff;stop-opacity:1"
   offset="0" />
		<stop
   id="stop9"
   style="stop-color:#ffffff;stop-opacity:0"
   offset="1" />
	</linearGradient>
	
		<path
   d="M 395.57919,545.60587 H 381.6098 c -3.69776,0 -6.67466,3.02689 -6.67466,6.78668 v 13.7458 c 0.11983,2.93512 0.58017,1.07956 1.45644,-2.17059 1.01855,-3.77734 4.33541,-7.07871 8.37502,-9.55312 3.08317,-1.88847 6.53427,-3.09441 12.81608,-3.20919 3.56263,-0.0649 3.24817,-4.66329 -2.00349,-5.59958 z"
   id="path1950"
   style="opacity:0.83260001;fill:url(#path1950_1_)" />
	<g
   transform="matrix(0.12604445,0,0,0.12712745,325.36537,502.523)"
   id="g12">
		<path
   d="m 433.279,353.763 h 15.304 l 1.97,7.879 1.667,5.818 1.364,5.697 1.364,5.939 1.061,4.97 h 0.606 l 1.061,-4.97 1.212,-5.939 1.515,-5.697 1.515,-5.818 2.121,-7.879 h 14.849 l -15.758,47.274 v 33.577 h -14.091 v -33.577 l -15.76,-47.274 z"
   id="path14" />
		<path
   d="m 497.826,373.642 c 11.97,0 18.031,5.697 18.031,16.97 v 27.88 c 0,11.273 -6.061,16.97 -18.031,16.97 -11.97,0 -18.031,-5.697 -18.031,-16.97 v -27.88 c 0,-11.272 6.06,-16.97 18.031,-16.97 z m 0,9.698 c -3.182,0 -4.849,1.939 -4.849,5.576 v 31.272 c 0,3.515 1.818,5.576 4.849,5.576 3.031,0 4.849,-2.061 4.849,-5.576 v -31.272 c -0.001,-3.637 -1.819,-5.576 -4.849,-5.576 z"
   id="path16" />
		<path
   d="m 553.433,434.614 -1.061,-5.212 c -5.455,4.485 -8.638,6.061 -12.426,6.061 -3.182,0 -6.515,-1.455 -8.029,-3.394 -1.668,-2.061 -2.121,-4.243 -2.121,-10.425 V 374.37 h 13.182 v 46.911 c 0,3.03 1.061,4.485 3.484,4.485 1.668,0 3.183,-0.606 5.91,-2.424 V 374.37 h 13.183 v 60.244 h -12.122 z"
   id="path18" />
	</g>
	<linearGradient
   x1="500.92181"
   y1="547.50897"
   x2="500.92181"
   y2="445.58469"
   id="rect3708_1_"
   gradientUnits="userSpaceOnUse"
   gradientTransform="matrix(0.12604445,0,0,0.12712745,325.36537,502.523)">
		<stop
   id="stop21"
   style="stop-color:#932420;stop-opacity:1"
   offset="0" />
		<stop
   id="stop23"
   style="stop-color:#cb322c;stop-opacity:1"
   offset="1" />
	</linearGradient>
	<path
   d="m 380.11695,559.16897 h 16.77337 c 2.47045,0 4.47304,2.0208 4.47304,4.51252 v 3.93345 c 0,2.49168 -2.00284,4.51135 -4.47304,4.51135 h -16.77337 c -2.47035,0 -4.47294,-2.02004 -4.47294,-4.51135 v -3.93345 c 0,-2.49172 2.00259,-4.51252 4.47294,-4.51252 z"
   id="rect3708"
   style="fill:url(#rect3708_1_)" />
</g>
<g
   transform="matrix(0.12604445,0,0,0.12712745,-1.1811307,-1.3507462)"
   id="g26">
	<path
   d="M 56.337,150.482 H 44.354 v -9.588 h 37.328 v 9.588 H 69.147 v 63.914 h -12.81 v -63.914 z"
   id="path28"
   style="fill:#ffffff" />
	<path
   d="m 105.372,214.396 -0.964,-4.737 c -4.958,4.077 -7.851,5.51 -11.294,5.51 -2.893,0 -5.923,-1.321 -7.3,-3.086 -1.515,-1.873 -1.929,-3.856 -1.929,-9.478 v -42.978 h 11.984 v 42.646 c 0,2.756 0.964,4.078 3.168,4.078 1.515,0 2.893,-0.552 5.372,-2.203 v -44.521 h 11.984 v 54.77 h -11.021 l 0,-0.001 z"
   id="path30"
   style="fill:#ffffff" />
	<path
   d="m 129.34,140.895 h 11.983 v 23.914 c 4.683,-4.188 7.851,-5.841 11.433,-5.841 2.756,0 5.785,1.322 7.162,3.085 1.516,1.983 1.93,3.969 1.93,9.809 v 30.414 c 0,5.73 -0.414,7.715 -1.93,9.697 -1.377,1.875 -4.406,3.196 -7.3,3.196 -3.582,0 -6.612,-1.653 -11.295,-5.951 v 5.181 H 129.34 v -73.504 z m 17.355,65.459 c 2.203,0 3.168,-1.322 3.168,-4.078 V 171.86 c 0,-2.864 -0.965,-4.076 -3.168,-4.076 -1.516,0 -2.894,0.551 -5.372,2.203 v 34.162 c 2.48,1.653 3.857,2.205 5.372,2.205 z"
   id="path32"
   style="fill:#ffffff" />
	<path
   d="m 207.163,195.223 v 1.983 c 0.138,1.433 0.138,2.425 0.138,2.976 0,9.697 -5.923,14.987 -16.805,14.987 -10.33,0 -16.115,-5.51 -16.115,-15.428 v -25.456 c 0,-10.358 5.51,-15.317 16.666,-15.317 9.918,0 16.116,5.179 16.116,13.664 v 16.089 h -20.799 v 12.012 c 0,3.969 1.239,5.621 4.407,5.621 1.516,0 2.893,-0.662 3.58,-1.652 0.689,-0.992 0.828,-2.204 0.828,-6.171 0,-0.992 0,-1.765 0,-3.308 h 11.984 z M 195.18,181.007 v -9.257 c 0,-2.534 -1.652,-3.967 -4.408,-3.967 -2.754,0 -4.406,1.433 -4.406,3.967 v 9.257 h 8.814 z"
   id="path34"
   style="fill:#ffffff" />
</g>
</svg>